<svg width="155" height="44" viewBox="0 0 155 44" fill="none" xmlns="http://www.w3.org/2000/svg">
<path d="M19.1396 0.912578C19.0131 1.43327 18.6337 4.34048 18.2542 7.33447C17.8747 10.3285 17.4953 13.3224 17.3688 13.9733C17.158 15.1015 17.2423 15.0581 19.0131 13.1055C21.5007 10.4152 24.8315 8.33246 29.5536 6.6836C33.8963 5.12152 34.36 5.64221 25.8433 2.38788C23.0607 1.34649 20.4466 0.348493 20.0672 0.174928C19.5191 -0.0420275 19.3083 0.131537 19.1396 0.912578Z" fill="black"/>
<path d="M58.7295 1.52007C56.6636 2.34451 53.6279 3.51607 52.0257 4.16693L49.1166 5.2951L52.869 6.64023C57.2117 8.20231 59.657 9.59083 62.3132 12.0207L64.2105 13.7564L64.4213 21.697L64.6321 29.6809H71.7997H78.9672L79.0937 27.8151L79.2201 25.9927H74.3715H69.5229L69.3964 19.3538L69.2699 12.7584L67.0775 12.6282C64.59 12.498 64.843 13.0621 63.9997 6.24971C63.3251 0.9126 63.1565 -0.0420055 62.8192 0.00138474C62.6505 0.00138474 60.8376 0.695642 58.7295 1.52007Z" fill="black"/>
<path d="M6.87045 12.498C2.10616 13.7564 -0.507873 17.6616 0.0823928 22.6949C0.714821 28.2924 6.23802 31.4599 12.5623 29.8979C15.4293 29.2036 18.0433 26.7303 18.0433 24.7777C18.0433 23.3892 18.0012 23.3892 15.9774 23.3892C14.2909 23.3892 13.7428 23.6061 13.1104 24.3872C9.99043 28.5093 4.42506 25.9059 5.09965 20.6989C5.68992 16.1863 9.90611 14.5374 12.731 17.7483C13.6585 18.8331 14.1645 19.0501 15.7244 19.0501C18.0855 19.0501 18.4228 18.3558 17.3266 16.1429C15.8931 13.3225 10.5807 11.5 6.87045 12.498Z" fill="black"/>
<path d="M26.8552 12.6716C22.6812 13.8865 20.5731 16.7503 20.5731 21.2196C20.5731 25.6889 22.8499 28.8131 26.8974 29.8979C28.9212 30.462 33.1374 30.2016 34.5287 29.464C35.2033 29.0734 35.8357 29.247 37.8595 30.4186C40.6422 31.9806 40.8951 32.6315 39.7989 35.235C38.787 37.7517 37.6908 38.3591 34.36 38.3591C32.3784 38.3591 31.3244 38.5327 31.2401 38.8798C30.9871 39.5741 32.8422 40.3117 34.7395 40.3117C35.5406 40.3117 36.2573 40.5721 36.3417 40.8324C36.4681 41.1362 36.679 41.9606 36.8476 42.6983C37.1427 44 37.1427 44 37.6065 42.004C37.9438 40.6155 38.5341 39.6175 39.6724 38.6195L41.2324 37.1876L42.8346 38.6195C43.9308 39.6175 44.5211 40.6155 44.8584 42.004L45.3221 44L45.6594 42.1342C45.9546 40.5287 46.1232 40.3117 47.1351 40.3117C49.5383 40.3117 50.9297 39.791 50.9297 38.9232C50.9297 38.1422 50.7189 38.0988 48.8216 38.3591C45.8702 38.793 44.0994 38.0554 43.0032 36.016C42.4973 35.1048 42.0757 33.7597 42.0757 33.1088C42.0757 32.0674 42.413 31.6335 44.1416 30.6355C46.1654 29.464 46.2919 29.464 49.1589 29.9846C57.0431 31.3732 62.3555 26.6001 61.0063 19.3104C60.2053 14.8411 56.8323 12.3678 51.5621 12.3678C46.9664 12.4112 43.72 14.5808 42.4973 18.4426C41.7805 20.6989 42.2865 24.5174 43.5513 26.5134C44.1416 27.4246 44.6054 28.249 44.6054 28.3792C44.6054 28.5093 42.9189 28.5961 40.8108 28.5961C38.7449 28.5961 37.0162 28.5093 37.0162 28.3792C37.0162 28.2924 37.48 27.468 38.0703 26.6001C40.9795 22.2176 39.546 15.6222 35.2454 13.496C32.8844 12.3245 29.3428 11.9773 26.8552 12.6716ZM31.7882 16.4466C33.6011 17.1843 32.7579 17.3578 30.692 16.6636C29.5536 16.3164 29.1741 16.0561 29.7222 16.0561C30.2282 16.0127 31.1557 16.2297 31.7882 16.4466ZM51.5621 16.6636C49.2854 17.6616 48.2735 17.8785 48.6108 17.3144C49.0324 16.6636 50.4659 16.0561 51.7729 16.0561C52.7848 16.0995 52.7848 16.0995 51.5621 16.6636ZM30.0174 21.6102C29.8487 22.9987 29.6801 23.3458 29.3849 22.9119C28.9633 22.1742 28.879 19.7009 29.3006 18.1823L29.5958 17.0975L29.9331 18.3992C30.1439 19.1369 30.186 20.5688 30.0174 21.6102ZM53.2064 21.6102C53.0378 22.9987 52.8691 23.3458 52.574 22.9119C52.1524 22.1742 52.068 19.0067 52.4897 17.9219C52.9534 16.6202 53.5437 19.3972 53.2064 21.6102ZM32.1676 24.6909C33.7276 24.6909 33.7698 24.7343 33.0952 25.4286C32.5471 25.9927 31.6617 26.2096 30.0174 26.2096C28.0358 26.2096 27.5298 26.0361 26.8552 25.1682C25.4217 23.3892 25.8434 22.9987 28.2887 23.8665C29.4693 24.3004 31.2401 24.6475 32.1676 24.6909ZM54.5556 25.4286C52.8269 26.9473 48.8637 26.6001 48.2313 24.8645C48.0627 24.4306 48.3999 24.3438 49.7913 24.5174C50.761 24.6475 52.4053 24.474 53.4594 24.1268C55.7361 23.4326 56.1999 23.9533 54.5556 25.4286Z" fill="black"/>
<path d="M88.032 12.498C83.4785 13.496 81.1174 16.49 81.1174 21.263C81.1174 26.5134 83.9844 29.6375 89.4233 30.2016C94.1876 30.7223 98.9941 27.9453 98.9941 24.6909C98.9941 23.4326 98.9097 23.3892 97.0125 23.3892C95.326 23.3892 94.8622 23.6061 93.6817 24.9079C90.2244 28.8131 84.912 24.9513 86.3455 19.5708C86.8936 17.4012 87.9477 16.4466 90.0557 16.1429C91.5314 15.9259 91.9109 16.0995 93.3865 17.488C94.7779 18.7463 95.4103 19.0501 96.8438 19.0501C99.0362 19.0501 99.4578 18.1823 98.3195 16.0561C96.886 13.3658 91.9109 11.6302 88.032 12.498Z" fill="#FF0000"/>
<path d="M144.529 12.4112C140.65 13.1055 138.542 14.9279 138.458 17.705C138.416 20.7423 140.819 22.3478 146.721 23.2156C147.818 23.3458 149.04 23.7363 149.462 24.0835C150.179 24.6475 150.179 24.7343 149.209 25.5588C147.775 26.8171 144.951 26.7303 143.348 25.3418C142.379 24.5174 141.62 24.257 140.144 24.257C137.825 24.257 137.404 24.8645 138.373 26.8171C140.987 31.9373 153.931 31.1128 154.901 25.7757C155.491 22.3912 153.467 20.4386 148.324 19.484C144.824 18.8331 143.686 18.3558 143.686 17.5314C143.686 16.7937 145.288 16.0127 146.848 16.0127C147.396 16.0127 148.408 16.49 149.082 17.0975C150.01 17.9219 150.811 18.1823 152.245 18.1823C153.299 18.1823 154.311 18.0087 154.437 17.7484C154.985 16.8371 153.299 14.3204 151.57 13.4526C149.715 12.5848 146.342 12.0641 144.529 12.4112Z" fill="#FF0000"/>
<path d="M107.553 13.0621C106.963 13.8865 100.681 28.8131 100.681 29.3772C100.681 29.7243 101.524 29.8979 103.042 29.8979C105.276 29.8979 105.361 29.8545 105.993 28.3792L106.583 26.8605H110.504H114.383L115.016 28.2924C115.606 29.5941 115.817 29.6809 118.094 29.8111C119.527 29.8979 120.497 29.7677 120.497 29.5073C120.497 28.9433 114.172 13.7997 113.624 13.0621C113.371 12.7584 112.191 12.5414 110.589 12.5414C108.987 12.5414 107.806 12.7584 107.553 13.0621ZM111.727 20.265C112.149 21.3932 112.486 22.4346 112.486 22.6081C112.486 22.8251 111.558 22.9553 110.378 22.9553C109.24 22.9553 108.27 22.8685 108.27 22.7383C108.27 22.0441 110.462 17.6616 110.673 17.9219C110.842 18.0955 111.305 19.1369 111.727 20.265Z" fill="#FF0000"/>
<path d="M120.37 12.8018C120.202 12.9753 120.075 13.8432 120.075 14.7544V16.4032L122.731 16.5334L125.345 16.6636L125.556 23.1723L125.767 29.6809H128.086H130.405L130.616 23.1723L130.826 16.6636L133.693 16.5334L136.56 16.4032L136.434 14.5808L136.307 12.7584L128.465 12.6282C124.165 12.5848 120.539 12.6716 120.37 12.8018Z" fill="#FF0000"/>
</svg>
