<svg width="26" height="28" viewBox="0 0 26 28" fill="none" xmlns="http://www.w3.org/2000/svg">
<path d="M4.61398 9.7287C4.02471 10.2578 3.67568 11.4019 4.32162 12.2063C4.96756 13.0108 6.71822 13.0639 7.19772 12.9466C8.46919 12.6356 8.46919 12.6356 9.62961 11.8706C10.5679 10.1974 7.39016 8.58035 8.22668 9.80755C10.033 9.84698 6.93481 8.1986 4.61398 9.7287Z" stroke="#FFA2B8"/>
<path d="M7.76876 10.0429C7.61706 9.97041 7.50822 9.90666 7.34444 9.8924C7.16313 9.87661 6.98515 9.77451 6.80328 9.74487C6.64911 9.71974 6.51387 9.73503 6.37077 9.79234C6.2847 9.82681 6.22016 9.89682 6.13063 9.91871C6.03197 9.94284 5.9418 10.0395 5.86277 10.1008C5.7147 10.2157 5.5953 10.3324 5.49315 10.4945C5.44405 10.5724 5.39569 10.6539 5.3619 10.7411C5.32305 10.8415 5.32683 10.95 5.29388 11.0505C5.2767 11.1029 5.31684 11.0732 5.32888 11.1224" stroke="#FFA2B8" stroke-width="0.5" stroke-linecap="round"/>
<path d="M6.25375 11.379C6.01103 11.4384 6.25159 11.4331 6.19682 11.351C6.14074 11.2668 6.11469 11.221 6.02403 11.2008C6.00086 11.1956 5.90479 11.1525 5.92637 11.1442C5.951 11.1347 6.06084 11.0282 6.03772 11.012C6.01976 10.9995 5.92144 10.98 5.97397 10.9961C6.0485 11.0189 6.11089 11.0324 6.17894 11.0731C6.32346 11.1595 6.46033 11.1715 6.61841 11.1965C6.82168 11.2287 7.02205 11.1745 7.22723 11.1934C7.33379 11.2032 7.4496 11.2222 7.55574 11.2192C7.74376 11.2138 7.92901 11.2002 8.11062 11.1558C8.21089 11.1312 8.13136 11.0964 8.08742 11.0565C7.96444 10.9447 7.89361 10.7279 7.81005 10.5855C7.77706 10.5293 7.6925 10.2935 7.60486 10.294C7.55032 10.2944 7.48145 10.2705 7.42807 10.2521" stroke="#FFA2B8" stroke-width="3" stroke-linecap="round"/>
<path d="M5.23773 10.8298C5.1819 10.9294 5.15711 11.0317 5.13916 11.1478C5.13016 11.2061 5.04968 11.2362 5.12641 11.2559" stroke="#FFA2B8" stroke-width="3" stroke-linecap="round"/>
<path d="M0.980785 7.72993C1.4046 7.62627 3.04036 8.52105 2.80754 9.68929C2.6059 10.7011 -0.179636 8.49498 0.980785 7.72993Z" stroke="#FFA2B8"/>
<path d="M1.0493 7.6842C1.47862 7.60639 3.05719 8.59857 2.75406 9.75057C2.49153 10.7483 -0.155315 8.37758 1.0493 7.6842Z" stroke="#FFA2B8"/>
<path d="M1.71184 8.36396C1.70921 8.35689 1.63387 8.31823 1.61992 8.31428C1.5717 8.30062 1.51771 8.32598 1.47052 8.33753C1.41556 8.35097 1.36422 8.36047 1.30774 8.36405C1.25265 8.36753 1.35736 8.50434 1.369 8.52756C1.4484 8.68598 1.52931 8.84151 1.63686 8.98141C1.66047 9.01212 1.68377 9.0687 1.71411 9.0907C1.75703 9.12181 1.7769 9.20539 1.80468 9.25084C1.8412 9.31059 1.89509 9.38688 1.94953 9.43C2.00317 9.47248 2.1397 9.47688 2.20259 9.45735C2.36361 9.40736 2.11021 8.94041 2.08121 8.86324C2.05143 8.784 2.00879 8.59166 1.94126 8.53382C1.93533 8.52874 1.89189 8.5421 1.91363 8.53678" stroke="#FFA2B8" stroke-linecap="round"/>
<path d="M1.81543 8.52662C1.74498 8.48047 1.66957 8.46014 1.59367 8.42799C1.53494 8.40312 1.46898 8.3529 1.40613 8.35328C1.37573 8.35347 1.31091 8.34039 1.29171 8.37462C1.23098 8.48292 1.27262 8.69289 1.29502 8.80487C1.34057 9.03252 1.43221 9.17591 1.56521 9.35879C1.62389 9.43948 1.69923 9.50726 1.75295 9.59012C1.81768 9.68997 1.89446 9.74991 1.99986 9.78799C2.0259 9.79739 2.19762 9.8284 2.1951 9.81809" stroke="#FFA2B8" stroke-linecap="round"/>
<path d="M5.13174 7.09281C4.81835 7.24652 4.34162 7.13324 4.14243 7.05739C3.94323 6.98154 3.33899 6.41013 3.31905 5.37863C3.50493 4.7668 4.70009 5.22191 4.90594 5.64161L4.90594 5.64162C5.19705 6.23514 5.52347 6.90068 5.13174 7.09281Z" stroke="#FFA2B8"/>
<path d="M3.99529 5.5684C3.98763 5.67531 3.976 5.7715 4.00183 5.87711C4.01768 5.94189 4.04395 5.96304 4.07687 6.01474C4.09399 6.04162 4.12088 6.05257 4.13951 6.07658C4.18046 6.12939 4.18673 6.20533 4.21762 6.26436C4.24654 6.31964 4.27511 6.3787 4.2981 6.43677C4.3242 6.50271 4.32797 6.57032 4.37708 6.62187C4.40675 6.653 4.45177 6.69801 4.49648 6.68707C4.52575 6.67991 4.50288 6.62957 4.49891 6.60931C4.47191 6.47133 4.46781 6.33895 4.46375 6.19923C4.45787 5.99726 4.43517 5.7944 4.41961 5.59268C4.41614 5.54776 4.41257 5.51231 4.36234 5.5246C4.31655 5.5358 4.2561 5.59525 4.24722 5.63977" stroke="#FFA2B8" stroke-linecap="round"/>
<path d="M7.0255 6.7329C6.44772 6.01339 6.47018 4.46241 7.74169 4.15158C8.28206 3.79515 8.92247 5.30632 8.60974 5.86419C8.33219 6.35931 7.6714 7.53723 7.0255 6.7329Z" stroke="#FFA2B8"/>
<path d="M7.75971 4.82424C7.49545 4.88887 7.46571 5.25261 7.38098 5.46844C7.33748 5.57926 7.14244 6.17255 7.38707 6.17105C7.43047 6.17078 7.46947 6.15011 7.51372 6.15469C7.58357 6.16192 7.58707 6.14136 7.65256 6.11238C7.77303 6.05907 7.78026 5.96538 7.83181 5.83663C7.89484 5.67918 7.91818 5.53349 7.96129 5.36934C7.98027 5.29705 7.9577 5.22543 7.98507 5.15564C7.99084 5.14094 8.03 5.05899 8.01131 5.06356" stroke="#FFA2B8" stroke-linecap="round"/>
<path d="M11.494 6.53824C11.3639 6.60348 11.1921 6.6261 11.0777 6.72229C11.0103 6.77898 10.899 6.8575 10.8464 6.93158C10.7932 7.0065 10.731 7.07471 10.6747 7.14704C10.66 7.16597 10.6398 7.16273 10.6248 7.17733C10.6054 7.19623 10.5986 7.23576 10.5772 7.25855C10.5337 7.30486 10.5312 7.37067 10.4972 7.4245C10.4652 7.47507 10.4426 7.55982 10.4256 7.6182C10.4014 7.70161 10.4054 7.79608 10.3889 7.88198C10.3722 7.96946 10.3477 8.06118 10.3487 8.15204C10.3498 8.24962 10.5104 8.31104 10.5895 8.28832C10.7182 8.25139 10.6649 8.04398 10.6525 7.94222C10.6198 7.67438 10.6196 7.41282 10.6101 7.14479C10.6045 6.98826 10.6706 6.83783 10.7046 6.68976C10.7197 6.62402 10.9887 6.59131 11.0481 6.58405C11.0844 6.57963 11.173 6.5756 11.2047 6.59998C11.2203 6.61204 11.2497 6.5978 11.2661 6.59581C11.3157 6.58975 11.3661 6.60467 11.4162 6.60608C11.4973 6.60837 11.5921 6.61908 11.6695 6.64892C11.7067 6.66326 11.7976 6.6847 11.813 6.72859C11.8321 6.78291 11.8162 6.8486 11.7796 6.88856C11.764 6.90561 11.7688 6.91474 11.763 6.93781C11.7474 7.00008 11.7038 7.05211 11.6837 7.11352C11.6263 7.28866 11.5784 7.44854 11.4748 7.60103C11.4233 7.67691 11.4117 7.76771 11.3485 7.84335C11.3298 7.86584 11.2066 8.058 11.1806 8.01544C11.15 7.96512 11.0316 7.67406 11.0784 7.63202" stroke="#FFA2B8" stroke-linecap="round"/>
<path d="M11.7711 19.9203C11.0805 20.1285 10.3492 20.9376 10.5691 21.8524C10.7891 22.7672 12.2104 23.4903 12.6508 23.5795C13.8187 23.8161 13.8187 23.8161 15.0712 23.6348C16.4931 22.6175 14.5031 20.0495 14.716 21.3872C16.1885 22.1206 14.2762 19.5576 11.7711 19.9203Z" stroke="#FFA2B8"/>
<path d="M14.2476 21.4038C14.1508 21.2851 14.0858 21.1902 13.9565 21.1149C13.8133 21.0315 13.7063 20.8782 13.568 20.7831C13.4508 20.7026 13.3334 20.6627 13.1933 20.6545C13.1091 20.6496 13.0288 20.6823 12.9465 20.6657C12.8559 20.6473 12.7441 20.6922 12.6553 20.7121C12.4887 20.7495 12.3451 20.7995 12.1981 20.8937C12.1275 20.9389 12.056 20.9875 11.9943 21.0464C11.9234 21.1141 11.8844 21.2052 11.8183 21.2754C11.7838 21.312 11.8284 21.303 11.8192 21.3484" stroke="#FFA2B8" stroke-width="0.5" stroke-linecap="round"/>
<path d="M12.4814 21.9191C12.2585 21.8739 12.4587 21.9629 12.4454 21.8738C12.4319 21.7826 12.4282 21.7347 12.3614 21.6828C12.3443 21.6696 12.2819 21.5967 12.3029 21.5982C12.3268 21.5999 12.4586 21.5546 12.4459 21.5323C12.4359 21.5149 12.3625 21.4608 12.3995 21.4944C12.4521 21.5422 12.4982 21.5775 12.5385 21.6375C12.624 21.7649 12.7321 21.8279 12.8526 21.9099C13.0075 22.0154 13.1936 22.0484 13.3552 22.1436C13.4392 22.193 13.5272 22.2536 13.6158 22.2923C13.7728 22.3608 13.9306 22.4215 14.0974 22.4552C14.1895 22.4739 14.1375 22.4143 14.1168 22.3643C14.0589 22.2243 14.0847 22.0178 14.0711 21.8678C14.0657 21.8086 14.0876 21.5811 14.0152 21.5476C13.9701 21.5267 13.9226 21.4803 13.8858 21.4444" stroke="#FFA2B8" stroke-width="3" stroke-linecap="round"/>
<path d="M11.8577 21.0714C11.773 21.132 11.7129 21.2068 11.6531 21.2957C11.6231 21.3403 11.5451 21.3339 11.6007 21.38" stroke="#FFA2B8" stroke-width="3" stroke-linecap="round"/>
<path d="M9.554 16.8605C9.94329 16.9393 10.9435 18.3127 10.2985 19.1869C9.73992 19.944 8.30145 17.0418 9.554 16.8605Z" stroke="#FFA2B8"/>
<path d="M9.554 16.8605C9.94329 16.9393 10.9435 18.3127 10.2985 19.1869C9.73992 19.944 8.30145 17.0418 9.554 16.8605Z" stroke="#FFA2B8"/>
<path d="M9.91016 17.6676C9.91074 17.6607 9.86368 17.5995 9.85373 17.5909C9.81932 17.5609 9.76501 17.5609 9.72166 17.5521C9.67118 17.5419 9.6252 17.5298 9.5773 17.5108C9.53057 17.4923 9.56374 17.6459 9.56432 17.6696C9.56826 17.8312 9.57457 17.991 9.60889 18.1482C9.61642 18.1827 9.61366 18.2385 9.63011 18.2684C9.65339 18.3108 9.63733 18.3875 9.64258 18.4358C9.64949 18.4993 9.66428 18.5832 9.69239 18.6399C9.72009 18.6958 9.83083 18.7524 9.89021 18.7607C10.0422 18.7819 10.0147 18.298 10.0207 18.2231C10.0269 18.1461 10.0664 17.9708 10.0332 17.8968C10.0303 17.8903 9.98936 17.8845 10.0093 17.8885" stroke="#FFA2B8" stroke-linecap="round"/>
<path d="M9.93239 17.842C9.89226 17.7766 9.83804 17.7306 9.788 17.6746C9.74928 17.6312 9.71443 17.5642 9.66252 17.5401C9.63741 17.5285 9.58909 17.4925 9.56 17.5133C9.46796 17.5792 9.42081 17.7687 9.39582 17.8698C9.34502 18.0755 9.36487 18.2294 9.40347 18.432C9.4205 18.5214 9.45626 18.6066 9.46837 18.6958C9.48295 18.8034 9.52293 18.8827 9.59497 18.955C9.61277 18.9728 9.74218 19.0651 9.7441 19.0556" stroke="#FFA2B8" stroke-linecap="round"/>
<path d="M12.973 17.9882C12.6616 17.9252 12.3807 17.5782 12.2791 17.4126C12.1776 17.2469 12.0592 16.4977 12.6178 15.7407C13.0918 15.4016 13.701 16.3952 13.6163 16.8132L13.6163 16.8132C13.4966 17.4043 13.3623 18.0671 12.973 17.9882Z" stroke="#FFA2B8"/>
<path d="M12.8754 16.2456C12.8276 16.3308 12.7807 16.4057 12.761 16.503C12.7489 16.5626 12.7624 16.5902 12.7694 16.6457C12.7731 16.6745 12.791 16.694 12.797 16.7211C12.8103 16.7805 12.786 16.8457 12.7885 16.9064C12.7909 16.9633 12.7915 17.0231 12.7879 17.08C12.7838 17.1445 12.7607 17.2018 12.7812 17.2634C12.7935 17.3006 12.8131 17.3553 12.8542 17.3636C12.8811 17.369 12.8818 17.3186 12.8864 17.3003C12.9177 17.1759 12.9656 17.0651 13.0165 16.9481C13.09 16.7791 13.15 16.6028 13.2154 16.4302C13.23 16.3918 13.2408 16.3612 13.1947 16.3518C13.1526 16.3433 13.0798 16.3689 13.0552 16.4022" stroke="#FFA2B8" stroke-linecap="round"/>
<path d="M14.9194 18.3827C14.7227 17.5645 15.3428 16.2927 16.5107 16.5295C17.094 16.4449 17.0353 17.941 16.5613 18.2802C16.1406 18.5813 15.1394 19.2974 14.9194 18.3827Z" stroke="#FFA2B8"/>
<path d="M16.2646 17.0918C16.0219 17.0426 15.8563 17.3314 15.7028 17.4767C15.6239 17.5513 15.2331 17.9655 15.4352 18.0591C15.4711 18.0758 15.5112 18.0738 15.5459 18.0948C15.6006 18.1278 15.6115 18.1122 15.6766 18.1137C15.7965 18.1164 15.8388 18.0419 15.9312 17.9556C16.0442 17.8501 16.12 17.7388 16.2192 17.6201C16.2628 17.5677 16.272 17.4998 16.3217 17.4529C16.3321 17.4429 16.3961 17.3905 16.379 17.387" stroke="#FFA2B8" stroke-linecap="round"/>
<path d="M17.0012 20.1097C17.6445 18.9346 18.9016 19.3167 19.117 19.6681C19.4216 20.1649 19.1855 20.6912 18.863 20.922C18.389 21.2611 18.049 21.6273 17.5257 21.5213C16.7472 21.3636 16.5463 20.9405 17.0012 20.1097Z" stroke="#FFA2B8" stroke-width="0.5"/>
<path d="M18.6754 19.9558C18.5429 19.9592 18.3927 19.9112 18.2611 19.9462C18.1836 19.9669 18.0615 19.9885 17.9894 20.0293C17.9165 20.0705 17.8388 20.1027 17.7644 20.1406C17.745 20.1505 17.7296 20.1399 17.7115 20.1462C17.6882 20.1543 17.6673 20.1843 17.6408 20.1948C17.587 20.2161 17.5595 20.2695 17.5105 20.3007C17.4646 20.3301 17.4131 20.3913 17.3765 20.4329C17.3242 20.4923 17.2908 20.5719 17.2439 20.6364C17.1962 20.7021 17.1405 20.7684 17.106 20.8438C17.069 20.9247 17.1775 21.0378 17.2515 21.0497C17.3718 21.0692 17.4084 20.8772 17.4376 20.7884C17.5146 20.5546 17.6159 20.3386 17.7121 20.1136C17.7682 19.9822 17.8809 19.8837 17.9664 19.7746C18.0044 19.7262 18.2386 19.8035 18.2904 19.8206C18.3219 19.831 18.3965 19.8621 18.4131 19.8945C18.4214 19.9106 18.4511 19.9102 18.4653 19.9149C18.5086 19.9292 18.5443 19.961 18.585 19.9816C18.6509 20.015 18.7249 20.0606 18.777 20.1153C18.8021 20.1416 18.8686 20.1945 18.8643 20.2367C18.8589 20.289 18.8203 20.337 18.7747 20.3559C18.7553 20.3639 18.7556 20.3733 18.7419 20.3901C18.7049 20.4354 18.6488 20.4615 18.6084 20.5044C18.4932 20.6267 18.3918 20.7401 18.2473 20.8258C18.1754 20.8684 18.1306 20.9389 18.0493 20.9769C18.0251 20.9881 17.8491 21.099 17.8442 21.0538C17.8385 21.0004 17.8539 20.7141 17.9088 20.6976" stroke="#FFA2B8" stroke-linecap="round"/>
<path d="M9.90157 7.47299C9.99223 6.00714 11.4204 5.79877 11.7986 6.04656C12.3335 6.39697 12.3446 7.02921 12.1317 7.40876C11.819 7.96649 11.6521 8.48854 11.0824 8.62787C10.2347 8.83519 9.83747 8.50951 9.90157 7.47299Z" stroke="#FFA2B8" stroke-width="0.5"/>
</svg>
