<svg width="23" height="21" viewBox="0 0 23 21" fill="none" xmlns="http://www.w3.org/2000/svg">
<path d="M1.25744 0.113138C0.732694 0.398598 0.684553 1.18115 1.17079 1.53551C1.32002 1.64379 1.37779 1.64871 2.35026 1.67332C3.29384 1.69793 3.38049 1.70778 3.46715 1.79637C3.53455 1.86527 4.12188 3.83396 5.34949 8.12077C6.3364 11.5463 7.19333 14.4452 7.2511 14.5682C7.50143 15.0702 7.9636 15.528 8.43057 15.7347C8.91199 15.9463 8.83978 15.9463 13.9717 15.9463C19.2866 15.9463 19.0555 15.9562 19.6043 15.6756C20.0761 15.4295 20.5719 14.8734 20.7501 14.396C20.7982 14.2582 21.3326 12.2944 21.9344 10.0304C22.7961 6.79683 23.0224 5.87647 22.9983 5.74358C22.955 5.50734 22.7865 5.2711 22.5843 5.16282C22.4254 5.07423 22.1077 5.06931 14.3183 5.06931C6.65414 5.06931 6.21605 5.06439 6.17753 4.98072C6.15346 4.93642 5.91275 4.11942 5.64316 3.17445C5.37357 2.22456 5.09916 1.33372 5.03657 1.19099C4.89215 0.871083 4.51183 0.452737 4.20372 0.280477C3.78007 0.0442343 3.49122 -6.10352e-05 2.4321 -6.10352e-05C1.51741 -6.10352e-05 1.45482 0.00485992 1.25744 0.113138ZM13.0233 6.95925C13.264 7.07737 13.4999 7.24963 13.6877 7.43666L13.9813 7.73196L14.1931 7.51048C14.6698 7.00354 15.233 6.74269 15.8685 6.74269C16.735 6.74269 17.5053 7.24963 17.8856 8.07156C18.0878 8.50959 18.1215 9.19371 17.9675 9.76463C17.6401 10.9803 16.6291 12.2944 14.9056 13.7315C14.3616 14.1893 14.2172 14.2729 13.9958 14.2729C13.7406 14.2729 13.6299 14.2089 13.0666 13.7463C11.7042 12.6241 10.6692 11.4232 10.2166 10.434C9.91815 9.78432 9.80261 9.01161 9.92778 8.47022C10.0626 7.86977 10.5199 7.27424 11.0687 6.9937C11.4779 6.78207 11.6561 6.74761 12.1904 6.75746C12.6189 6.7673 12.6815 6.78207 13.0233 6.95925Z" fill="#FFD8CB"/>
<path d="M9.34045 17.7379C8.88792 17.9003 8.49797 18.294 8.32948 18.7468C8.24763 18.9683 8.23319 19.0963 8.24763 19.4162C8.27171 19.8148 8.35836 20.0658 8.58944 20.3858C8.86385 20.7647 9.55709 21.0551 10.0433 20.9911C10.3755 20.9518 10.8184 20.7303 11.0399 20.494C11.4972 20.0019 11.6224 19.2341 11.3528 18.6287C11.1795 18.2547 10.8232 17.9052 10.4718 17.7674C10.1637 17.6542 9.61486 17.6345 9.34045 17.7379Z" fill="#FFD8CB"/>
<path d="M17.5294 17.7477C17.0191 17.9396 16.6291 18.3875 16.4895 18.9486C16.2969 19.7164 16.6869 20.5088 17.4283 20.8582C17.6449 20.9616 17.7701 20.9862 18.083 20.9911C18.4248 20.9911 18.5067 20.9714 18.7907 20.8287C20.0087 20.2184 20.0231 18.4662 18.8148 17.8313C18.4922 17.664 17.8664 17.6246 17.5294 17.7477Z" fill="#FFD8CB"/>
</svg>
