<svg width="45" height="45" viewBox="0 0 45 45" fill="none" xmlns="http://www.w3.org/2000/svg">
<path d="M2.28516 3.19043C1.32715 3.7002 1.23926 5.09766 2.12696 5.73047C2.39942 5.92383 2.50489 5.93262 4.28028 5.97656C6.00293 6.02051 6.16114 6.03809 6.31934 6.19629C6.44239 6.31934 7.51465 9.83496 9.75586 17.4902C11.5576 23.6074 13.1221 28.7842 13.2275 29.0039C13.6846 29.9004 14.5283 30.7178 15.3809 31.0869C16.2598 31.4648 16.1279 31.4648 25.4971 31.4648C35.2002 31.4648 34.7783 31.4824 35.7803 30.9814C36.6416 30.542 37.5469 29.5488 37.8721 28.6963C37.96 28.4502 38.9355 24.9434 40.0342 20.9004C41.6074 15.126 42.0205 13.4824 41.9766 13.2451C41.8975 12.8232 41.5898 12.4014 41.2207 12.208C40.9307 12.0498 40.3506 12.041 26.1299 12.041C12.1377 12.041 11.3379 12.0322 11.2676 11.8828C11.2236 11.8037 10.7842 10.3447 10.292 8.65723C9.79981 6.96094 9.29883 5.37012 9.18457 5.11524C8.9209 4.54395 8.22657 3.79688 7.66407 3.48926C6.89063 3.06738 6.36329 2.98828 4.42969 2.98828C2.75977 2.98828 2.64551 2.99707 2.28516 3.19043Z" fill="#FF0000"/>
<path d="M17.042 34.6641C16.2158 34.9541 15.5039 35.6572 15.1963 36.4658C15.0469 36.8613 15.0205 37.0898 15.0469 37.6611C15.0908 38.373 15.249 38.8213 15.6709 39.3926C16.1719 40.0693 17.4375 40.5879 18.3252 40.4736C18.9316 40.4033 19.7402 40.0078 20.1445 39.5859C20.9795 38.707 21.208 37.3359 20.7158 36.2549C20.3994 35.5869 19.749 34.9629 19.1074 34.7168C18.5449 34.5146 17.543 34.4795 17.042 34.6641Z" fill="#FF0000"/>
<path d="M31.9922 34.6816C31.0605 35.0244 30.3486 35.8242 30.0937 36.8262C29.7422 38.1973 30.4541 39.6123 31.8076 40.2363C32.2031 40.4209 32.4316 40.4648 33.0029 40.4736C33.627 40.4736 33.7764 40.4385 34.2949 40.1836C36.5186 39.0938 36.5449 35.9648 34.3389 34.8311C33.75 34.5322 32.6074 34.4619 31.9922 34.6816Z" fill="#FF0000"/>
<path d="M21.7723 16.4872C18.7724 14.4871 20.2723 10.4872 21.2723 8.48716C23.7723 4.98717 23.7723 8.48716 24.2723 10.5928H26.2723C26.7723 8.48715 26.7927 5.48718 28.7723 7.98717C30.2723 9.88152 31.7723 15.4872 28.2723 16.4872C27.7723 16.9872 22.9579 17.2776 21.7723 16.4872Z" stroke="black"/>
<path d="M19.3491 12.7274C19.3604 12.7783 19.535 12.7887 19.5791 12.7887C19.6605 12.7887 19.7383 12.7733 19.8193 12.7666C19.9791 12.7533 20.1396 12.7631 20.2997 12.7547C20.3156 12.7538 20.4213 12.7517 20.3491 12.7342C20.0771 12.6686 19.789 12.6661 19.5101 12.6661C19.4572 12.6661 19.5063 12.6661 19.5314 12.6661C19.6376 12.6661 19.7438 12.6661 19.8499 12.6661C20.1018 12.6661 20.3486 12.6852 20.5995 12.6959C20.6149 12.6965 20.8068 12.7135 20.7187 12.7121C20.5484 12.7092 20.384 12.6661 20.2111 12.6661C20.0017 12.6661 19.8037 12.6461 19.5961 12.6346C19.5728 12.6333 19.4787 12.6047 19.4871 12.6047C19.5583 12.6047 19.6252 12.6162 19.6949 12.6201C19.8106 12.6265 19.9246 12.6354 20.0416 12.6354C20.2189 12.6354 20.3962 12.6661 20.5756 12.6661C20.6358 12.6661 20.696 12.6661 20.7562 12.6661C20.8587 12.6661 20.5648 12.5799 20.4623 12.5749C20.223 12.5633 19.9797 12.5741 19.7401 12.5741C19.6533 12.5741 19.5641 12.5894 19.482 12.5894C19.3698 12.5894 19.7112 12.5778 19.8176 12.6133C20.1235 12.7152 21.1059 12.6661 20.7834 12.6661C20.6188 12.6661 20.4552 12.6218 20.2894 12.6218C20.2037 12.6218 20.1184 12.6354 20.0322 12.6354C19.9644 12.6354 19.8297 12.6085 19.7682 12.6456C19.6486 12.7177 19.591 12.906 19.5586 13.0272C19.4445 13.4549 19.4521 13.9022 19.7034 14.2793C19.8391 14.4828 19.9933 14.6435 20.1651 14.8184C20.4368 15.095 20.7243 15.3606 21.0355 15.5926C21.1329 15.6652 21.2554 15.7445 21.366 15.8021C21.3952 15.8174 21.4677 15.8623 21.4606 15.8303C21.4563 15.811 21.4382 15.7978 21.4282 15.7809C21.3708 15.6832 21.3323 15.6025 21.2808 15.4955C21.0123 14.9374 20.7922 14.3643 20.6403 13.7631C20.6023 13.6125 20.5624 13.4214 20.5347 13.264C20.5283 13.2275 20.5239 13.1907 20.5185 13.1541C20.5153 13.1316 20.5239 13.0972 20.5032 13.0877C20.4288 13.0533 20.1581 13.593 20.1412 13.6302C20.0726 13.7819 20.0017 13.9768 20.1038 14.1311C20.1852 14.2541 20.2958 14.3147 20.3431 14.4649C20.4297 14.7399 20.4954 15.0128 20.6063 15.2809C20.7341 15.5899 20.8885 15.8636 21.0926 16.1292C21.2606 16.3479 21.436 16.5522 21.6641 16.7101C21.9537 16.9105 22.28 17.0136 22.6283 17.0542C22.6883 17.0612 22.8658 17.0597 22.8089 17.0397C22.528 16.941 22.2883 16.7546 22.0542 16.5755C21.5765 16.21 21.1131 15.8265 20.6335 15.4632C20.3626 15.2579 20.0907 15.0465 19.792 14.8823C19.658 14.8085 19.6259 14.9223 19.62 15.0611C19.5922 15.711 20.2792 15.9892 20.7817 16.1914C21.1899 16.3556 21.6183 16.5006 22.0466 16.6045C22.3441 16.6767 22.6609 16.6803 22.9639 16.7169C23.3767 16.7667 23.7899 16.8219 24.2006 16.8873C24.3136 16.9052 24.4556 16.9111 24.5668 16.9469C24.5865 16.9532 24.545 16.9678 24.543 16.969C24.4279 17.0427 24.3309 17.1021 24.1946 17.1377C23.7101 17.2641 23.1938 17.1045 22.7049 17.0823C22.0449 17.0523 24.0366 17.0712 24.681 16.9247C24.8978 16.8754 25.0871 16.7515 25.301 16.7024C25.6382 16.6251 25.9856 16.5849 26.3282 16.5397C26.4691 16.5212 26.4723 16.5149 26.3963 16.6385C26.2376 16.8969 26.0535 17.1616 25.7601 17.2748C25.2463 17.4731 24.714 17.5107 24.1733 17.5107C24.0045 17.5107 24.2133 17.4428 24.2611 17.4213C24.7404 17.2049 25.2343 17.0109 25.7303 16.8361C25.8606 16.7902 26.0008 16.7352 26.1408 16.728C26.4429 16.7125 26.7508 16.7159 27.0505 16.6709C27.1739 16.6524 27.2951 16.6068 27.415 16.5738C27.4854 16.5544 27.5654 16.5436 27.6331 16.5142C27.6501 16.5068 27.6577 16.4961 27.6433 16.5227C27.5813 16.6371 27.5158 16.7507 27.4508 16.8634C27.4001 16.9512 27.329 17.1389 27.22 17.1768C27.0832 17.2244 26.955 17.2851 26.8137 17.3199C26.7323 17.34 26.6371 17.3267 26.5548 17.3267" stroke="#FF0000" stroke-linecap="round"/>
<path d="M27.582 16.8668C28.4967 16.4937 29.4589 16.1339 30.2189 15.487C30.343 15.3814 30.4331 15.2718 30.5392 15.1523C30.6067 15.0761 30.6781 15.0032 30.747 14.9283C30.7987 14.8721 30.7899 14.8698 30.7146 14.9078C30.0303 15.2532 29.3135 15.5181 28.6194 15.8413C28.2854 15.9968 27.9383 16.1314 27.6126 16.3038C27.4909 16.3682 27.563 16.3334 27.6501 16.2774C28.2864 15.868 28.9377 15.4819 29.5614 15.0526C29.9054 14.8158 30.1516 14.4734 30.4864 14.223C30.5846 14.1495 30.7299 14.0828 30.7555 13.9522C30.7864 13.7947 30.7698 13.6079 30.7249 13.4539C30.6957 13.354 30.6211 13.2573 30.563 13.1729C30.5215 13.1125 30.4744 13.062 30.4404 12.9948C30.4078 12.9307 30.4011 12.9096 30.3382 12.8739C30.2573 12.8281 30.1653 12.7619 30.0775 12.7308C30.0302 12.714 29.9731 12.7034 29.9234 12.6976C29.9135 12.6964 29.8836 12.6967 29.8936 12.6967C29.9724 12.6967 30.06 12.6761 30.1363 12.6635C30.2556 12.6439 30.3743 12.6214 30.4932 12.5996C30.5134 12.5959 30.5492 12.5834 30.5715 12.5928C30.6292 12.6171 30.6927 12.6292 30.7521 12.6499C30.7569 12.6515 30.8735 12.6813 30.8748 12.6848C30.9033 12.7646 30.5796 12.9153 30.5255 12.9386C30.416 12.9859 30.2966 12.9755 30.1806 12.9982C29.8578 13.0616 29.7472 13.4562 29.7607 13.7495C29.7675 13.8973 29.8078 14.0374 29.8953 14.154C29.9562 14.2353 29.9043 14.2899 30.012 14.1736C30.1027 14.0756 30.1925 13.9757 30.2768 13.8721C30.3185 13.821 30.3582 13.7901 30.3126 13.7358C30.1985 13.6001 30.077 13.4833 30.006 13.3168C29.9409 13.1642 29.928 13.0001 29.9157 12.8364C29.9113 12.7773 29.9068 12.7317 29.8816 12.6814" stroke="#FF0000" stroke-linecap="round"/>
<path d="M29.7896 12.6047C29.7174 12.6047 29.8279 12.6201 29.8518 12.6201C29.8893 12.6201 29.9268 12.6201 29.9642 12.6201C29.9895 12.6201 30.0759 12.6201 30.0043 12.6201C29.9022 12.6201 29.8092 12.6212 29.7155 12.6056C29.6657 12.5973 29.8158 12.5894 29.8663 12.5894C29.952 12.5894 30.0378 12.5894 30.1235 12.5894C30.1901 12.5894 30.3069 12.593 30.3654 12.5664C30.4217 12.5408 30.5262 12.5587 30.5869 12.5587C30.6855 12.5587 30.7835 12.5741 30.8799 12.5741C31.1257 12.5741 30.3881 12.5741 30.1423 12.5741C30.0937 12.5741 30.0452 12.5741 29.9966 12.5741C29.8796 12.5741 29.9554 12.5741 30.0273 12.5741C30.0877 12.5741 30.1482 12.5741 30.2087 12.5741C30.2592 12.5741 30.1084 12.5587 30.0579 12.5587C29.9531 12.5587 29.8294 12.5476 29.7436 12.6047" stroke="#FF0000" stroke-linecap="round"/>
</svg>
