<svg width="53" height="61" viewBox="0 0 53 61" fill="none" xmlns="http://www.w3.org/2000/svg">
<path d="M35.933 24.0115C34.9629 20.2509 33.6455 10.499 36.1636 6.68678C39.5947 1.49232 45.3467 3.08644 45.3467 3.08644C48.5106 4.03312 52.5494 8.92348 48.8328 14.6673C45.8717 19.2435 38.994 22.8114 35.933 24.0115Z" fill="#00FF38" stroke="#00FF38" stroke-width="2" stroke-linecap="round" stroke-linejoin="round"/>
<path d="M2.28516 19.1904C1.32715 19.7002 1.23926 21.0977 2.12696 21.7305C2.39942 21.9238 2.50489 21.9326 4.28028 21.9766C6.00293 22.0205 6.16114 22.0381 6.31934 22.1963C6.44239 22.3193 7.51465 25.835 9.75586 33.4902C11.5576 39.6074 13.1221 44.7842 13.2275 45.0039C13.6846 45.9004 14.5283 46.7178 15.3809 47.0869C16.2598 47.4648 16.1279 47.4648 25.4971 47.4648C35.2002 47.4648 34.7783 47.4824 35.7803 46.9814C36.6416 46.542 37.5469 45.5488 37.8721 44.6963C37.96 44.4502 38.9355 40.9434 40.0342 36.9004C41.6074 31.126 42.0205 29.4824 41.9766 29.2451C41.8975 28.8232 41.5898 28.4014 41.2207 28.208C40.9307 28.0498 40.3506 28.041 26.1299 28.041C12.1377 28.041 11.3379 28.0322 11.2676 27.8828C11.2236 27.8037 10.7842 26.3447 10.292 24.6572C9.79981 22.9609 9.29883 21.3701 9.18457 21.1152C8.9209 20.5439 8.22657 19.7969 7.66407 19.4893C6.89063 19.0674 6.36329 18.9883 4.42969 18.9883C2.75977 18.9883 2.64551 18.9971 2.28516 19.1904Z" fill="#FF0000"/>
<path d="M17.042 50.6641C16.2158 50.9541 15.5039 51.6572 15.1963 52.4658C15.0469 52.8613 15.0205 53.0898 15.0469 53.6611C15.0908 54.373 15.249 54.8213 15.6709 55.3926C16.1719 56.0693 17.4375 56.5879 18.3252 56.4736C18.9316 56.4033 19.7402 56.0078 20.1445 55.5859C20.9795 54.707 21.208 53.3359 20.7158 52.2549C20.3994 51.5869 19.749 50.9629 19.1074 50.7168C18.5449 50.5146 17.543 50.4795 17.042 50.6641Z" fill="#FF0000"/>
<path d="M31.9922 50.6816C31.0605 51.0244 30.3486 51.8242 30.0937 52.8262C29.7422 54.1973 30.4541 55.6123 31.8076 56.2363C32.2031 56.4209 32.4316 56.4648 33.0029 56.4736C33.627 56.4736 33.7764 56.4385 34.2949 56.1836C36.5186 55.0938 36.5449 51.9648 34.3389 50.8311C33.75 50.5322 32.6074 50.4619 31.9922 50.6816Z" fill="#FF0000"/>
<path d="M21.7723 32.4872C18.7724 30.4871 20.2723 26.4872 21.2723 24.4872C23.7723 20.9872 23.7723 24.4872 24.2723 26.5928H26.2723C26.7723 24.4872 26.7927 21.4872 28.7723 23.9872C30.2723 25.8815 31.7723 31.4872 28.2723 32.4872C27.7723 32.9872 22.9579 33.2776 21.7723 32.4872Z" stroke="black"/>
<path d="M19.3491 28.7274C19.3604 28.7783 19.535 28.7887 19.5791 28.7887C19.6605 28.7887 19.7383 28.7733 19.8193 28.7666C19.9791 28.7532 20.1396 28.7631 20.2997 28.7546C20.3156 28.7538 20.4213 28.7516 20.3491 28.7342C20.0771 28.6686 19.789 28.6661 19.5101 28.6661C19.4572 28.6661 19.5063 28.6661 19.5314 28.6661C19.6376 28.6661 19.7438 28.6661 19.8499 28.6661C20.1018 28.6661 20.3486 28.6852 20.5995 28.6959C20.6149 28.6965 20.8068 28.7135 20.7187 28.7121C20.5484 28.7092 20.384 28.6661 20.2111 28.6661C20.0017 28.6661 19.8037 28.6461 19.5961 28.6346C19.5728 28.6333 19.4787 28.6047 19.4871 28.6047C19.5583 28.6047 19.6252 28.6162 19.6949 28.6201C19.8106 28.6265 19.9246 28.6354 20.0416 28.6354C20.2189 28.6354 20.3962 28.6661 20.5756 28.6661C20.6358 28.6661 20.696 28.6661 20.7562 28.6661C20.8587 28.6661 20.5648 28.5799 20.4623 28.5749C20.223 28.5633 19.9797 28.5741 19.7401 28.5741C19.6533 28.5741 19.5641 28.5894 19.482 28.5894C19.3698 28.5894 19.7112 28.5778 19.8176 28.6133C20.1235 28.7152 21.1059 28.6661 20.7834 28.6661C20.6188 28.6661 20.4552 28.6218 20.2894 28.6218C20.2037 28.6218 20.1184 28.6354 20.0322 28.6354C19.9644 28.6354 19.8297 28.6085 19.7682 28.6456C19.6486 28.7177 19.591 28.906 19.5586 29.0272C19.4445 29.4549 19.4521 29.9022 19.7034 30.2792C19.8391 30.4828 19.9933 30.6435 20.1651 30.8184C20.4368 31.095 20.7243 31.3606 21.0355 31.5926C21.1329 31.6652 21.2554 31.7445 21.366 31.8021C21.3952 31.8173 21.4677 31.8623 21.4606 31.8302C21.4563 31.811 21.4382 31.7978 21.4282 31.7808C21.3708 31.6832 21.3323 31.6025 21.2808 31.4955C21.0123 30.9374 20.7922 30.3643 20.6403 29.7631C20.6023 29.6125 20.5624 29.4214 20.5347 29.264C20.5283 29.2275 20.5239 29.1907 20.5185 29.1541C20.5153 29.1316 20.5239 29.0972 20.5032 29.0877C20.4288 29.0533 20.1581 29.593 20.1412 29.6302C20.0726 29.7819 20.0017 29.9768 20.1038 30.131C20.1852 30.2541 20.2958 30.3147 20.3431 30.4649C20.4297 30.7399 20.4954 31.0128 20.6063 31.2809C20.7341 31.5899 20.8885 31.8635 21.0926 32.1292C21.2606 32.3479 21.436 32.5522 21.6641 32.7101C21.9537 32.9105 22.28 33.0136 22.6283 33.0542C22.6883 33.0612 22.8658 33.0597 22.8089 33.0397C22.528 32.941 22.2883 32.7546 22.0542 32.5755C21.5765 32.21 21.1131 31.8264 20.6335 31.4632C20.3626 31.2579 20.0907 31.0465 19.792 30.8823C19.658 30.8085 19.6259 30.9223 19.62 31.0611C19.5922 31.711 20.2792 31.9892 20.7817 32.1914C21.1899 32.3555 21.6183 32.5006 22.0466 32.6045C22.3441 32.6767 22.6609 32.6803 22.9639 32.7169C23.3767 32.7667 23.7899 32.8219 24.2006 32.8872C24.3136 32.9052 24.4556 32.9111 24.5668 32.9469C24.5865 32.9532 24.545 32.9677 24.543 32.969C24.4279 33.0427 24.3309 33.1021 24.1946 33.1377C23.7101 33.2641 23.1938 33.1045 22.7049 33.0823C22.0449 33.0523 24.0366 33.0712 24.681 32.9247C24.8978 32.8754 25.0871 32.7515 25.301 32.7024C25.6382 32.6251 25.9856 32.5849 26.3282 32.5397C26.4691 32.5212 26.4723 32.5149 26.3963 32.6385C26.2376 32.8969 26.0535 33.1615 25.7601 33.2748C25.2463 33.4731 24.714 33.5107 24.1733 33.5107C24.0045 33.5107 24.2133 33.4428 24.2611 33.4213C24.7404 33.2049 25.2343 33.0109 25.7303 32.8361C25.8606 32.7902 26.0008 32.7352 26.1408 32.728C26.4429 32.7125 26.7508 32.7159 27.0505 32.6709C27.1739 32.6524 27.2951 32.6068 27.415 32.5738C27.4854 32.5544 27.5654 32.5436 27.6331 32.5142C27.6501 32.5068 27.6577 32.4961 27.6433 32.5227C27.5813 32.6371 27.5158 32.7507 27.4508 32.8634C27.4001 32.9512 27.329 33.1389 27.22 33.1768C27.0832 33.2244 26.955 33.2851 26.8137 33.3199C26.7323 33.34 26.6371 33.3267 26.5548 33.3267" stroke="#FF0000" stroke-linecap="round"/>
<path d="M27.582 32.8668C28.4967 32.4937 29.4589 32.1339 30.2189 31.487C30.343 31.3814 30.4331 31.2718 30.5392 31.1523C30.6067 31.0761 30.6781 31.0032 30.747 30.9283C30.7987 30.8721 30.7899 30.8698 30.7146 30.9078C30.0303 31.2532 29.3135 31.5181 28.6194 31.8413C28.2854 31.9968 27.9383 32.1314 27.6126 32.3038C27.4909 32.3682 27.563 32.3334 27.6501 32.2774C28.2864 31.868 28.9377 31.4819 29.5614 31.0526C29.9054 30.8158 30.1516 30.4734 30.4864 30.223C30.5846 30.1495 30.7299 30.0828 30.7555 29.9522C30.7864 29.7947 30.7698 29.6079 30.7249 29.4539C30.6957 29.354 30.6211 29.2573 30.563 29.1729C30.5215 29.1125 30.4744 29.062 30.4404 28.9948C30.4078 28.9307 30.4011 28.9096 30.3382 28.8739C30.2573 28.8281 30.1653 28.7619 30.0775 28.7308C30.0302 28.714 29.9731 28.7034 29.9234 28.6976C29.9135 28.6964 29.8836 28.6967 29.8936 28.6967C29.9724 28.6967 30.06 28.6761 30.1363 28.6635C30.2556 28.6439 30.3743 28.6214 30.4932 28.5996C30.5134 28.5959 30.5492 28.5834 30.5715 28.5928C30.6292 28.6171 30.6927 28.6292 30.7521 28.6499C30.7569 28.6515 30.8735 28.6813 30.8748 28.6848C30.9033 28.7646 30.5796 28.9153 30.5255 28.9386C30.416 28.9859 30.2966 28.9755 30.1806 28.9982C29.8578 29.0616 29.7472 29.4562 29.7607 29.7495C29.7675 29.8973 29.8078 30.0374 29.8953 30.154C29.9562 30.2353 29.9043 30.2899 30.012 30.1736C30.1027 30.0756 30.1925 29.9757 30.2768 29.8721C30.3185 29.821 30.3582 29.7901 30.3126 29.7358C30.1985 29.6001 30.077 29.4833 30.006 29.3168C29.9409 29.1642 29.928 29.0001 29.9157 28.8364C29.9113 28.7773 29.9068 28.7317 29.8816 28.6814" stroke="#FF0000" stroke-linecap="round"/>
<path d="M29.7896 28.6047C29.7174 28.6047 29.8279 28.6201 29.8518 28.6201C29.8893 28.6201 29.9268 28.6201 29.9642 28.6201C29.9895 28.6201 30.0759 28.6201 30.0043 28.6201C29.9022 28.6201 29.8092 28.6212 29.7155 28.6056C29.6657 28.5973 29.8158 28.5894 29.8663 28.5894C29.952 28.5894 30.0378 28.5894 30.1235 28.5894C30.1901 28.5894 30.3069 28.593 30.3654 28.5664C30.4217 28.5408 30.5262 28.5588 30.5869 28.5588C30.6855 28.5588 30.7835 28.5741 30.8799 28.5741C31.1257 28.5741 30.3881 28.5741 30.1423 28.5741C30.0937 28.5741 30.0452 28.5741 29.9966 28.5741C29.8796 28.5741 29.9554 28.5741 30.0273 28.5741C30.0877 28.5741 30.1482 28.5741 30.2087 28.5741C30.2592 28.5741 30.1084 28.5588 30.0579 28.5588C29.9531 28.5588 29.8294 28.5476 29.7436 28.6047" stroke="#FF0000" stroke-linecap="round"/>
</svg>
